<?xml version="1.0" encoding="utf-8"?>
<!-- Generator: Adobe Illustrator 18.0.0, SVG Export Plug-In . SVG Version: 6.00 Build 0)  -->
<!DOCTYPE svg PUBLIC "-//W3C//DTD SVG 1.1//EN" "http://www.w3.org/Graphics/SVG/1.1/DTD/svg11.dtd">
<svg version="1.1" id="Layer_1" xmlns="http://www.w3.org/2000/svg" xmlns:xlink="http://www.w3.org/1999/xlink" x="0px" y="0px"
	 viewBox="0 227.9 1190.6 210" enable-background="new 0 227.9 1190.6 210" xml:space="preserve">
<rect x="-36" y="210.9" fill="#4C566A" stroke="#000000" stroke-miterlimit="10" width="1260" height="355"/>
<g enable-background="new    ">
	<path fill="#FFFFFF" d="M275.7,368.4c0,0.9-0.2,1.4-0.6,1.6c-0.2,0.1-0.7,0.2-1.7,0.3c-2.5,0.2-6,0.4-10.5,0.4
		c-6.4,0-10.2-0.1-11.3-0.4c-1.1-0.2-1.7-0.8-1.7-1.7c0-3.2,0.2-8.1,0.5-14.5c0.3-6.5,0.5-11.3,0.5-14.5c0-1.6-0.4-2.5-1.3-2.8
		c-1.4-0.3-6.3-0.5-14.8-0.5c-8.5,0-13.5,0.2-14.9,0.5c-0.9,0.2-1.3,1.1-1.3,2.8c0,3.2,0.1,7.9,0.3,14.3c0.2,6.3,0.3,11.1,0.3,14.3
		c0,1.2-0.6,1.9-1.7,2.1c-1.3,0.2-5.1,0.4-11.5,0.4c-5.5,0-9-0.1-10.5-0.4c-1.2-0.2-1.8-0.8-1.8-1.9c0-4.4,0.2-11.1,0.6-19.9
		c0.4-8.9,0.6-15.6,0.6-20c0-4.7-0.2-11.8-0.6-21.3c-0.4-9.5-0.6-16.6-0.6-21.3c0-0.9,0.4-1.3,1.3-1.3c1.3,0,3.2,0.1,5.7,0.2
		c2.5,0.1,4.5,0.2,5.7,0.2c1.3,0,3.3-0.1,5.9-0.2c2.6-0.1,4.6-0.2,5.9-0.2c0.7,0,1,0.4,1,1.1c0,3.1-0.2,7.6-0.7,13.7
		c-0.4,6.1-0.7,10.7-0.7,13.7c0,1.4,0.4,2.3,1.2,2.5c1.1,0.3,6.3,0.5,15.7,0.5c8.7,0,13.8-0.2,15.2-0.5c1-0.2,1.5-1.1,1.5-2.5
		c0-2.9-0.1-7.4-0.4-13.3c-0.3-5.9-0.4-10.4-0.4-13.4c0-1.3,0.5-1.9,1.5-1.9c1.2,0,3,0.1,5.4,0.2c2.4,0.1,4.3,0.2,5.5,0.2
		c1.2,0,3-0.1,5.4-0.2c2.4-0.1,4.3-0.2,5.5-0.2c1.2,0,1.8,0.5,1.8,1.5c0,4.7-0.2,11.8-0.6,21.2c-0.4,9.5-0.6,16.6-0.6,21.3
		c0,4.4,0.2,11.1,0.6,20C275.5,357.4,275.7,364,275.7,368.4z"/>
	<path fill="#FFFFFF" d="M309.2,342.2c0,3,0.1,7.4,0.2,13.3c0.1,5.9,0.2,10.3,0.2,13.2c0,0.9-0.5,1.4-1.5,1.5
		c-1.4,0.2-4.5,0.4-9.4,0.4c-4.9,0-8-0.1-9.4-0.4c-0.9-0.2-1.4-0.4-1.7-0.8c-0.1-0.2-0.1-0.8-0.1-1.8c0-2.8,0.1-7,0.2-12.7
		c0.1-5.6,0.2-9.9,0.2-12.8c0-11.6-0.4-20.8-1.3-27.7c-0.1-0.7-0.1-1.1-0.1-1.3c0-0.8,0.6-1.2,1.7-1.2c1.1,0,2.9,0.1,5.2,0.4
		c2.3,0.2,4.1,0.4,5.3,0.4c1.2,0,3-0.1,5.3-0.3c2.4-0.2,4.1-0.3,5.3-0.3c1,0,1.5,0.4,1.5,1.2c0,0.2,0,0.6-0.1,1.2
		C309.7,322.5,309.2,331.8,309.2,342.2z M310.8,296.8c0,7.1-4,10.6-12,10.6c-3.4,0-6.3-0.9-8.5-2.7c-2.4-2-3.7-4.6-3.7-8
		c0-3.2,1.3-5.8,3.8-7.8c2.3-1.9,5.1-2.8,8.4-2.8c3.2,0,5.9,1,8.3,2.9C309.5,291,310.8,293.6,310.8,296.8z"/>
	<path fill="#FFFFFF" d="M347.8,349.7c0,11.1-4.1,20.6-12.3,28.4c-1.3,1.2-3.3,2.9-6.1,4.9c-3.4,2.4-5.6,3.7-6.5,3.7
		c-0.6,0-2.1-1.3-4.3-3.9c-2.3-2.6-3.4-4.3-3.4-5.1c0-0.4,0.8-1.5,2.3-3.2c1.9-2.1,3.3-4,4.2-5.8c1.5-2.8,2.3-5.9,2.3-9.2
		c0-0.5-0.1-1.3-0.2-2.3c-0.1-1-0.2-1.7-0.2-2.2c0-1,0.3-1.8,1-2.6c0.5-0.5,3.9-1.5,10.2-3.1c6.1-1.5,9.7-2.2,10.8-2.2
		C347,347.1,347.8,348,347.8,349.7z"/>
	<path fill="#FFFFFF" d="M410.2,342.2c0,3,0.1,7.4,0.2,13.3c0.1,5.9,0.2,10.3,0.2,13.2c0,0.9-0.5,1.4-1.5,1.5
		c-1.4,0.2-4.5,0.4-9.4,0.4c-4.9,0-8-0.1-9.4-0.4c-0.9-0.2-1.4-0.4-1.7-0.8c-0.1-0.2-0.1-0.8-0.1-1.8c0-2.8,0.1-7,0.2-12.7
		c0.1-5.6,0.2-9.9,0.2-12.8c0-11.6-0.4-20.8-1.3-27.7c-0.1-0.7-0.1-1.1-0.1-1.3c0-0.8,0.6-1.2,1.7-1.2c1.1,0,2.9,0.1,5.2,0.4
		c2.3,0.2,4.1,0.4,5.3,0.4c1.2,0,3-0.1,5.3-0.3c2.4-0.2,4.1-0.3,5.3-0.3c1,0,1.5,0.4,1.5,1.2c0,0.2,0,0.6-0.1,1.2
		C410.6,322.5,410.2,331.8,410.2,342.2z M411.8,296.8c0,7.1-4,10.6-12,10.6c-3.4,0-6.3-0.9-8.5-2.7c-2.4-2-3.7-4.6-3.7-8
		c0-3.2,1.3-5.8,3.8-7.8c2.3-1.9,5.1-2.8,8.4-2.8c3.2,0,5.9,1,8.3,2.9C410.5,291,411.8,293.6,411.8,296.8z"/>
	<path fill="#FFFFFF" d="M446.1,299.5c0,4.6-1.3,9.5-3.9,14.8c-2.4,4.9-5.3,9-8.9,12.5c-0.8,0.8-1.5,1.2-2,1.2
		c-0.4,0-0.8-0.3-1.3-0.9c-0.2-0.3-1.5-1.4-3.8-3.4c-2-1.8-3.1-2.7-3.1-2.9c0,0.4,1-1,3.1-4.2c2.1-3.2,3.1-6.5,3.1-10
		c0-2.7-1.5-5.6-4.6-8.7c-3-3.2-4.6-4.8-4.6-5c0-0.7,1-1.8,3.1-3.4c1.3-1,2.7-2,4-3.1c1.3-1.2,2.5-2.3,3.7-3.5
		c2.1-1.9,3.3-2.9,3.5-2.9c0.4,0,1,0.3,1.8,0.9C442.9,286,446.1,292.2,446.1,299.5z"/>
	<path fill="#FFFFFF" d="M554.5,368.1c0,1.4-0.6,2.2-1.8,2.4c-1.2,0.2-4.2,0.2-9.1,0.2c-5,0-8.1-0.1-9.3-0.4c-1.2-0.2-1.8-1.2-1.8-3
		c0-1.9,0.1-4.7,0.2-8.4c0.1-3.7,0.2-6.5,0.2-8.4c0-7.1-0.1-12.2-0.2-15.2c-0.2-4.9-2.5-7.3-6.9-7.3c-1.9,0-3.8,0.8-5.7,2.4
		c-1.9,1.6-2.9,3.4-3.2,5.4c-0.2,1.7-0.2,6.7-0.2,15.1c0,1.9,0.1,4.8,0.2,8.7c0.1,3.9,0.2,6.8,0.2,8.8c0,1.3-0.6,2-1.8,2h-18.5
		c-1.1,0-1.7-0.8-1.7-2.5c0-1.9,0.1-4.8,0.2-8.6c0.1-3.8,0.2-6.7,0.2-8.7c0-1.5,0-3.8-0.1-6.9c-0.1-3.1-0.1-5.4-0.1-6.9
		c0-5.8-2.2-8.8-6.7-8.8c-1.8,0-3.7,0.7-5.8,2.1c-2.3,1.5-3.4,3.1-3.4,4.8c0,3.7,0,9.3,0.1,16.6c0,7.4,0.1,12.9,0.1,16.6
		c0,1-0.1,1.7-0.4,1.9c-0.2,0.2-0.9,0.4-1.9,0.5c-1.8,0.2-4.7,0.2-8.7,0.2c-2.6,0-5.5-0.1-8.8-0.4c-1-0.1-1.6-0.2-1.7-0.4
		c-0.2-0.2-0.3-0.8-0.3-1.8c0-3.3,0-8.1,0.1-14.7c0-6.5,0.1-11.4,0.1-14.7c0-6.7-0.5-14.2-1.5-22.6c-0.1-0.5-0.1-0.9-0.1-1.1
		c0-0.7,0.3-1.2,0.9-1.4c0.9-0.4,2.6-0.7,5.1-0.9c3.1-0.3,4.9-0.5,5.4-0.6c0.4-0.1,2-0.5,4.8-1.3c2-0.6,3.6-0.9,4.8-0.9
		c0.8,0,1.2,1.4,1.2,4.3c0,2.8,0.2,4.3,0.5,4.3c0.4-0.2,0.9-0.4,1.4-0.9c3.7-2.9,6.6-4.8,8.7-5.9c3.1-1.5,6.5-2.3,10.2-2.3
		c3.8,0,7.1,0.8,10,2.5c3.3,1.9,5.4,4.5,6.4,7.9c2.2-2.9,5.1-5.4,8.9-7.4c3.8-2,7.5-3,11.1-3c5.4,0,9.8,1.2,13.2,3.7
		c3.8,2.8,5.8,6.8,5.8,12.1c0,2.2-0.1,5.4-0.2,9.8c-0.1,4.3-0.2,7.6-0.2,9.8c0,2.6,0.1,6.4,0.2,11.6
		C554.4,361.6,554.5,365.5,554.5,368.1z"/>
	<path fill="#FFFFFF" d="M670.8,369.7c0,0.3-0.4,0.5-1.2,0.6c-1.6,0.2-5.4,0.4-11.7,0.4c-5.3,0-9-0.1-10.9-0.4
		c-0.9-0.1-1.4-0.2-1.5-0.3c-0.2-0.1-0.5-0.5-0.9-1.2c-0.6-1.6-1.5-4-2.7-7.1c-1.6-4.1-4.1-10.1-7.5-18.1c-0.7-1.6-2.4-2.5-5.1-2.6
		c1.2,0.1-0.9,0.1-6.3,0.1c-0.6,0-0.9,1-0.9,3.1c0,2.8,0.3,6.9,0.8,12.4c0.5,5.5,0.8,9.6,0.8,12.4c0,0.7-0.2,1.1-0.6,1.2
		c-0.6,0-1.1,0.1-1.7,0.1c-2.4,0.2-6.2,0.2-11.3,0.2c-5.8,0-9.3-0.1-10.5-0.4c-1.2-0.2-1.8-0.9-1.8-1.9c0-4.5,0.2-11.3,0.6-20.3
		c0.4-9.1,0.6-15.8,0.6-20.4c0-17.3-0.4-30.7-1.2-40.4l-0.1-0.9c0-0.7,0.6-1.2,1.9-1.4c1.3-0.2,7.6-0.5,18.7-0.7
		c7.5-0.2,13.6-0.2,18.1-0.2c9.3,0,16.9,2.1,22.8,6.3c6.6,4.7,10,11.6,10,20.5c0,6-0.9,10.7-2.6,14.3c-1.7,3.5-4.9,7-9.5,10.3
		c-0.9,0.7-1.4,1.3-1.4,1.8c0,0,2.5,5.1,7.5,15.4C668.3,363,670.8,368.7,670.8,369.7z M645.1,314.8c0-5-1.6-8.4-4.9-10.3
		c-2.5-1.5-6.5-2.2-11.9-2.2c-3.9,0-5.9,0.6-6.2,1.8c-0.2,1.4-0.4,5.4-0.4,12c0,0.9,0,2.3,0.1,4.2c0,1.8,0.1,3.2,0.1,4.1
		c0,0.2,0.7,0.4,2,0.6c2.5,0.4,5.1,0.6,7.8,0.6C640.6,325.5,645.1,321.9,645.1,314.8z"/>
	<path fill="#FFFFFF" d="M736.1,340.2c0,9.3-2.8,16.8-8.5,22.6c-5.7,5.8-13.2,8.7-22.4,8.7c-9,0-16.4-2.9-22.2-8.6
		c-5.8-5.7-8.7-13.1-8.7-22c0-9.5,2.8-17.1,8.3-23c5.5-5.9,13.1-8.8,22.5-8.8c9.2,0,16.7,2.9,22.4,8.7
		C733.3,323.5,736.1,331,736.1,340.2z M716.1,340.2c0-3.2-1-6.1-3-8.5c-2-2.5-4.6-3.7-7.8-3.7c-3.2,0-5.9,1.3-8,3.8
		c-2,2.4-2.9,5.2-2.9,8.4c0,3.3,1,6.1,2.9,8.5c2.1,2.5,4.7,3.8,8,3.8c3.2,0,5.8-1.3,7.9-3.8C715.1,346.4,716.1,343.5,716.1,340.2z"
		/>
	<path fill="#FFFFFF" d="M802.4,340.2c0,9.3-2.8,16.8-8.5,22.6c-5.7,5.8-13.2,8.7-22.4,8.7c-9,0-16.4-2.9-22.2-8.6
		c-5.8-5.7-8.7-13.1-8.7-22c0-9.5,2.8-17.1,8.3-23c5.5-5.9,13.1-8.8,22.5-8.8c9.2,0,16.7,2.9,22.4,8.7
		C799.6,323.5,802.4,331,802.4,340.2z M782.3,340.2c0-3.2-1-6.1-3-8.5c-2-2.5-4.6-3.7-7.8-3.7c-3.2,0-5.9,1.3-8,3.8
		c-2,2.4-2.9,5.2-2.9,8.4c0,3.3,1,6.1,2.9,8.5c2.1,2.5,4.7,3.8,8,3.8c3.2,0,5.8-1.3,7.9-3.8C781.4,346.4,782.3,343.5,782.3,340.2z"
		/>
	<path fill="#FFFFFF" d="M876.1,340.4c0,8.6-2.4,15.7-7.3,21.5c-5.2,6.1-12,9.2-20.4,9.2c-6.1,0-11.1-1.8-14.8-5.3
		c-0.3-0.2-0.5-0.4-0.7-0.4c-0.4,0-0.8,0.8-1.1,2.3c-0.3,1.5-0.8,2.3-1.3,2.5c-0.7,0.2-6.5,0.3-17.4,0.3c-2.6,0-3.9-0.5-3.9-1.4
		c0-0.1,0-0.4,0.1-0.9c0.8-6.5,1.2-18.8,1.2-37.1c0-17.4-0.6-32.6-1.8-45.5l-0.1-0.7c0-0.7,0.6-1,1.9-1.1c0.9,0,4.4-0.3,10.6-0.9
		c4.4-0.4,7.9-0.6,10.6-0.6c0.8,0,1.2,0.7,1.2,2c0,1.6-0.1,3.7-0.3,6.3c-0.2,3.2-0.4,5.3-0.4,6.4c-0.2,4-0.3,9.5-0.3,16.5
		c0,1.3,0.3,1.9,1,1.9c0.3,0,0.6-0.2,0.9-0.5c3.7-3.9,8.5-5.9,14.4-5.9c8.9,0,15.9,3,20.9,9.1C873.8,323.8,876.1,331.2,876.1,340.4z
		 M854,339.7c0-3.4-1-6.3-3.1-8.6c-2.1-2.3-4.8-3.5-8.1-3.5c-3.4,0-6.1,1.2-8.1,3.5c-2,2.3-3,5.3-3,8.7c0,3.6,1,6.5,2.9,8.7
		c2,2.3,4.8,3.5,8.3,3.5c3.5,0,6.2-1.2,8.3-3.6C853,346.2,854,343.3,854,339.7z"/>
	<path fill="#FFFFFF" d="M939.7,337.1c0,4.1-1.3,6.5-4,7c-0.4,0.1-4.7,0.5-12.7,1.3c-4.8,0.5-12,1.2-21.5,1.9
		c0.6,2.7,2.3,4.7,5.2,6.1c2.4,1.1,5.1,1.7,8.1,1.7c3.6,0,7.3-1,11-2.9c1.5-1,3.1-2,4.7-2.9c0.9,0.4,2.3,2.5,4.3,6.2
		c2,3.8,3,6.1,3,7.2c0,0.3-0.3,0.8-0.9,1.4c-5,5.3-12.7,8-23.2,8c-9.7,0-17.5-2.8-23.5-8.5c-6.1-5.8-9.2-13.4-9.2-23.1
		c0-9.4,2.7-17.1,8.2-23.1c5.6-6.2,13.1-9.3,22.4-9.3c7.8,0,14.5,2.9,19.9,8.6C936.9,322.4,939.7,329.2,939.7,337.1z M918.2,333.4
		c0-2.5-0.9-4.8-2.7-6.7c-1.8-1.9-3.9-2.9-6.4-2.9c-2.6,0-4.7,1.1-6.4,3.2c-1.6,2-2.3,4.3-2.3,7c0,1.1,0.6,1.7,1.7,1.7
		c3,0,7.7-0.5,14.1-1.4C917.6,334.1,918.2,333.8,918.2,333.4z"/>
	<path fill="#FFFFFF" d="M1007.2,368.6c0,1.1-0.6,1.7-1.7,1.9c-1.1,0.2-4.1,0.2-8.9,0.2c-5.1,0-8.3-0.1-9.5-0.4s-1.8-1.1-1.8-2.5
		c0-1.9,0.1-4.8,0.2-8.7c0.1-3.9,0.2-6.8,0.2-8.8c0-1.5,0-3.8-0.1-6.8c-0.1-3-0.1-5.3-0.1-6.8c0-5.6-2.4-8.4-7.3-8.4
		c-1.6,0-3.4,0.7-5.6,2.1c-2.3,1.6-3.4,3.1-3.4,4.6v33c0,1.3-0.6,2.1-1.9,2.3c-1.4,0.2-4.3,0.2-8.8,0.2c-4.8,0-7.9-0.1-9.3-0.4
		c-1.3-0.2-1.9-0.9-1.9-2c0-3.2,0-8,0.1-14.4c0-6.4,0.1-11.2,0.1-14.4c0-10.2-0.8-18.1-2.4-23.9c-0.1-0.4-0.1-0.7-0.1-0.9
		c0-0.7,0.3-1.1,0.9-1.3c2.6-0.3,6-0.7,10.3-1.3c6.5-1.3,10.1-1.9,11-1.9c0.4,0,0.8,1.4,1,4.1c0.2,2.8,0.6,4.1,1,4.1
		c-0.5,0,1.7-1.4,6.6-4.3c4.8-2.8,9.1-4.3,12.7-4.3c5.2,0,9.5,1.2,13,3.7c3.9,2.8,5.8,6.7,5.8,11.7v19.5c0,2.7,0,6.6,0.1,11.9
		C1007.2,361.9,1007.2,365.9,1007.2,368.6z"/>
	<path fill="#FFFFFF" d="M1073.2,299.3c0,7.4-0.7,14.4-2,20.9c-1.6,6.7-3.2,13.4-4.8,20c-0.4,1.5-2,2.3-4.9,2.3
		c-3.3,0-5.1-0.7-5.5-2c-3.8-13.1-5.8-20.5-5.8-22.3c0-1.7,0.1-4.2,0.2-7.5c0.2-3.3,0.2-5.8,0.2-7.5c0-1.8-0.1-4.6-0.2-8.3
		c-0.1-3.7-0.2-6.4-0.2-8.3c0-1.5,0.4-2.3,1.1-2.3c1.1,0,2.9,0.1,5.1,0.2c2.3,0.2,4,0.2,5.1,0.2c1.1,0,2.9-0.1,5.1-0.2
		c2.3-0.2,4-0.2,5.1-0.2C1072.8,284.5,1073.2,289.4,1073.2,299.3z M1073.2,359.9c0,3.4-1.1,6.3-3.2,8.5c-2.1,2.3-4.9,3.4-8.3,3.4
		c-3.5,0-6.3-1.1-8.4-3.4c-2.1-2.2-3.2-5.1-3.2-8.6c0-3.4,1.1-6.2,3.2-8.4c2.1-2.2,4.9-3.3,8.3-3.3c3.4,0,6.2,1.1,8.3,3.3
		C1072.2,353.7,1073.2,356.5,1073.2,359.9z"/>
</g>
</svg>
